<svg width="34" height="32" viewBox="0 0 34 32" fill="none" xmlns="http://www.w3.org/2000/svg">
<path d="M22.8085 0.721093C22.7101 0.8125 22.6468 1.00937 22.5906 1.43125C22.3726 3.04141 21.1984 4.17344 19.5531 4.35625C19.0117 4.41953 18.9203 4.48281 18.9203 4.78516C18.9203 5.10156 19.0468 5.17891 19.6726 5.24922C21.1984 5.41797 22.3796 6.58516 22.5906 8.13906C22.6749 8.74375 22.8015 8.96875 23.0687 8.96875C23.2656 8.96875 23.4906 8.63125 23.4906 8.34297C23.4906 7.96328 23.6804 7.28828 23.8914 6.92969C24.4539 5.96641 25.5999 5.24219 26.5492 5.24219C27.0765 5.24219 27.407 4.80625 27.0976 4.51797C27.0273 4.46172 26.7249 4.37734 26.4085 4.33516C25.0445 4.15234 23.9335 3.18906 23.596 1.90234C23.5398 1.67031 23.4906 1.36797 23.4906 1.21328C23.4906 1.02344 23.4414 0.896874 23.3148 0.777344C23.1109 0.566406 22.9914 0.559375 22.8085 0.721093Z" fill="#7750F1"/>
<path d="M10.1026 3.71654C10.0112 3.77982 9.96196 3.96263 9.91977 4.33529C9.8143 5.24232 9.50493 5.8681 8.87211 6.45873C8.32368 6.97201 7.41665 7.3517 6.74165 7.3517C6.30571 7.3517 6.05961 7.70326 6.28461 8.01263C6.3479 8.10404 6.55883 8.16732 6.98774 8.2306C8.3518 8.43451 9.35727 9.25013 9.77211 10.4947C9.85649 10.7337 9.91977 11.0572 9.91977 11.2119C9.91977 11.7533 10.1237 11.9923 10.5174 11.8939C10.7143 11.8447 10.7354 11.7814 10.8338 11.0853C11.0377 9.62982 12.1838 8.46967 13.6252 8.2517C13.8924 8.21654 14.1666 8.16732 14.251 8.15326C14.3284 8.1392 14.4338 8.04076 14.4831 7.93529C14.5534 7.77357 14.5463 7.72435 14.4338 7.56966C14.3565 7.45716 14.2159 7.37982 14.0963 7.36576C13.9838 7.35873 13.7096 7.31654 13.4776 7.27435C12.1416 7.03529 11.0377 5.8681 10.8338 4.49701C10.7987 4.22982 10.7635 3.9767 10.7635 3.92748C10.7635 3.67435 10.3416 3.54076 10.1026 3.71654Z" fill="#7750F1"/>
<path d="M17.3377 11.1415C16.9229 11.254 16.7401 11.3595 16.4307 11.6408C15.376 12.6181 15.7346 14.4462 17.0776 14.9033C18.7229 15.4658 20.2346 13.8697 19.5526 12.2876C19.3768 11.8869 18.9057 11.4087 18.5331 11.247C18.2307 11.1205 17.612 11.0712 17.3377 11.1415Z" fill="#7750F1"/>
<path d="M4.42799 13.9187C4.28737 13.9679 4.07643 14.0734 3.9569 14.1578C3.68971 14.3476 3.38034 14.9593 3.38034 15.2898C3.37331 15.7046 3.68268 18.3203 3.73893 18.3203C3.76002 18.3203 6.57956 18.7281 9.99674 19.2343C13.4139 19.7335 16.2264 20.1273 16.2475 20.0992C16.2686 20.0781 15.9522 19.7476 15.5444 19.3609C12.521 16.4921 9.17409 14.6429 5.7569 13.9609C4.94127 13.7992 4.77252 13.7921 4.42799 13.9187Z" fill="#7750F1"/>
<path d="M27.9554 13.9963C25.1288 14.6221 22.4429 15.951 19.9749 17.9549C18.9765 18.7635 17.5983 20.0432 17.6616 20.1065C17.6827 20.1276 20.1788 19.7831 23.2163 19.3401C30.1913 18.3135 30.2054 18.3135 30.2124 18.2995C30.2687 18.2151 30.5288 15.4096 30.5007 15.1846C30.4515 14.7487 30.1562 14.2776 29.7835 14.0667C29.3476 13.8065 28.8905 13.7854 27.9554 13.9963Z" fill="#7750F1"/>
<path d="M2.45932 19.1219C2.02338 19.2344 1.72807 19.4594 1.50307 19.8531L1.3062 20.1836L1.2851 22.1312L1.26401 24.0859H8.21791C14.8624 24.0859 15.1789 24.093 15.2843 24.2125C15.3898 24.325 15.4039 24.55 15.4039 25.9V27.4609H16.9507H18.4976V25.893C18.4976 24.4586 18.5117 24.3109 18.6242 24.2055C18.7437 24.093 19.3343 24.0859 25.6976 24.0859H32.6374L32.6164 22.1312L32.5953 20.1836L32.3984 19.8461C32.2929 19.6633 32.082 19.4383 31.9414 19.3398C31.4351 19.0094 31.2593 19.0094 28.9882 19.3398C27.8351 19.5086 24.7203 19.9727 22.0484 20.3594C19.3835 20.7531 17.0843 21.0766 16.9507 21.0766C16.8171 21.0766 15.4109 20.8797 13.8218 20.6477C9.48354 20.0078 8.21088 19.825 5.59526 19.4453C4.28041 19.2555 3.11323 19.0797 2.9937 19.0656C2.8812 19.0445 2.6351 19.0727 2.45932 19.1219Z" fill="#7750F1"/>
<path d="M1.0604 25.0914C-0.0505411 25.675 -0.0435099 27.1867 1.0604 27.8125L1.3768 27.9883L6.44633 28.0094L11.5159 28.0305L11.5651 28.3469C11.6284 28.8391 12.0362 29.6336 12.4581 30.0906C12.9362 30.618 13.5338 31.0047 14.1737 31.2086C14.6377 31.3563 14.7854 31.3633 16.951 31.3633C19.1166 31.3633 19.2643 31.3563 19.7284 31.2086C20.3682 31.0047 20.9659 30.618 21.444 30.0906C21.8659 29.6336 22.2737 28.8391 22.337 28.3469L22.3862 28.0305L27.4557 28.0094L32.5252 27.9883L32.8416 27.8125C33.9456 27.1867 33.9526 25.675 32.8416 25.0914L32.5393 24.9297H26.0565C19.9604 24.9297 19.5666 24.9367 19.4612 25.0563C19.3698 25.1547 19.3487 25.4148 19.3276 26.5258L19.3065 27.8828L19.1096 28.0727L18.9198 28.2695H16.951H14.9823L14.7924 28.0727L14.5956 27.8828L14.5745 26.5258C14.5534 25.4148 14.5323 25.1547 14.4409 25.0563C14.3354 24.9367 13.9416 24.9297 7.84555 24.9297H1.36274L1.0604 25.0914Z" fill="#7750F1"/>
</svg>
