<svg width="16" height="10" viewBox="0 0 16 10" fill="none" xmlns="http://www.w3.org/2000/svg">
<path d="M7.99999 0C4.66666 0 1.81999 2.07333 0.666656 5C1.81999 7.92667 4.66666 10 7.99999 10C11.3333 10 14.18 7.92667 15.3333 5C14.18 2.07333 11.3333 0 7.99999 0ZM7.99999 8.33333C6.15999 8.33333 4.66666 6.84 4.66666 5C4.66666 3.16 6.15999 1.66667 7.99999 1.66667C9.83999 1.66667 11.3333 3.16 11.3333 5C11.3333 6.84 9.83999 8.33333 7.99999 8.33333ZM7.99999 3C6.89332 3 5.99999 3.89333 5.99999 5C5.99999 6.10667 6.89332 7 7.99999 7C9.10666 7 9.99999 6.10667 9.99999 5C9.99999 3.89333 9.10666 3 7.99999 3Z" fill="#9058FF"/>
</svg>
