<svg width="30" height="27" viewBox="0 0 30 27" fill="none" xmlns="http://www.w3.org/2000/svg">
<path d="M0.892603 0.105373C0.54104 0.224905 0.294946 0.456936 0.133228 0.808498C0.00666504 1.07569 -0.000366211 1.58194 -0.000366211 13.4999C-0.000366211 25.3897 0.00666504 25.9241 0.133228 26.1913C0.287915 26.5429 0.618384 26.8312 0.969946 26.9296C1.33557 27.028 28.6168 27.028 28.9824 26.9296C29.334 26.8312 29.6645 26.5429 29.8192 26.1913C29.9457 25.9241 29.9528 25.3897 29.9528 13.4999C29.9528 1.61006 29.9457 1.07569 29.8192 0.808498C29.6645 0.456936 29.334 0.168655 28.9824 0.0702171C28.8067 0.020998 24.2153 -9.53674e-05 14.941 -9.53674e-05C3.45198 0.00693703 1.1176 0.020998 0.892603 0.105373ZM13.4504 13.4507C14.7512 16.7062 15.8199 19.3921 15.8199 19.4272C15.8199 19.4554 15.0887 19.4694 14.1887 19.4624L12.5574 19.4413L12.2692 18.7171L11.9879 17.9999L9.56917 18.014L7.15745 18.0351L6.86916 18.7522L6.58791 19.4765H4.93557C3.64885 19.4765 3.29729 19.4554 3.32541 19.3851C3.84573 18.0702 8.03635 7.61475 8.06448 7.57256C8.07854 7.54444 8.7676 7.52334 9.59026 7.52334H11.0809L13.4504 13.4507ZM25.4528 13.4999V19.4765H22.8653C19.9895 19.4765 19.8418 19.4624 18.9207 19.0124C18.2809 18.696 17.5074 17.9788 17.1348 17.3601C16.7059 16.6288 16.509 15.9187 16.502 15.0468C16.4949 14.1749 16.6215 13.6194 16.9871 12.8952C17.3106 12.2413 17.8379 11.6577 18.4707 11.2429C19.3356 10.6804 20.1653 10.4835 21.677 10.4765H22.4996V8.9999V7.52334H23.9762H25.4528V13.4999Z" fill="#7750F1"/>
<path d="M9.58558 11.3825C9.58558 11.4036 9.3184 12.0997 9.00199 12.9294L8.4184 14.4411L9.57152 14.4622C10.2114 14.4692 10.7387 14.4692 10.7528 14.4551C10.7668 14.4411 10.5067 13.738 10.1832 12.8872C9.8598 12.0434 9.58558 11.3614 9.58558 11.3825Z" fill="#7750F1"/>
<path d="M20.336 13.1969C19.8298 13.4641 19.5485 13.9 19.5134 14.5047C19.4853 14.8984 19.5064 14.9617 19.7243 15.2852C19.879 15.5172 20.0689 15.6859 20.3079 15.8125C20.6243 15.9742 20.7298 15.9883 21.5735 15.9883H22.4876L22.5087 14.4906L22.5228 13H21.6157C20.7579 13 20.6876 13.0141 20.336 13.1969Z" fill="#7750F1"/>
</svg>
