<svg width="36" height="34" viewBox="0 0 36 34" fill="none" xmlns="http://www.w3.org/2000/svg">
<path d="M18.8648 0.518951C18.7664 0.533012 18.457 0.582233 18.1758 0.62442C17.5008 0.722858 16.5937 1.03223 15.9187 1.39786C14.0977 2.3752 12.8039 3.99239 12.2062 6.04551L12.0164 6.69942L11.9883 12.5846L11.9672 18.4768H9.64687C8.37422 18.4768 7.02422 18.5119 6.65156 18.5541C4.00781 18.8494 1.77891 20.4525 0.646875 22.8783C0.492187 23.2018 0.28125 23.7854 0.182812 24.158C0.0210937 24.7627 0 24.9736 0 26.0002C0 27.0338 0.0210937 27.2377 0.182812 27.8635C0.808594 30.2119 2.62266 32.2229 4.83047 33.0174C6.19453 33.5166 5.26641 33.4815 17.4234 33.5096C25.0242 33.5236 28.6242 33.5096 29.1445 33.4533C32.3297 33.1299 34.8609 30.9713 35.7258 27.8424L35.9156 27.1604V17.0002V6.84004L35.7258 6.15801C34.875 3.07129 32.3648 0.89864 29.25 0.554108C28.6312 0.483795 19.3148 0.455669 18.8648 0.518951ZM23.3016 6.63614C23.8289 6.79786 24.2016 7.02989 24.6164 7.45879C25.3477 8.23926 25.4742 8.73848 25.4742 10.9533C25.4742 11.8252 25.4461 12.7182 25.4039 12.9502C25.193 14.2369 24.1875 15.2424 22.9008 15.4533C22.6687 15.4955 21.7758 15.5236 20.9039 15.5236C18.6891 15.5236 18.1898 15.3971 17.4094 14.6658C16.9734 14.2439 16.7414 13.8783 16.5797 13.3299C16.4812 12.9924 16.4672 12.6197 16.4883 10.8268L16.5094 8.73145L16.7766 8.19707C17.1562 7.42364 17.7891 6.88926 18.6187 6.62207C18.8156 6.55879 19.4906 6.53067 20.9109 6.53067C22.5562 6.52364 22.9852 6.54473 23.3016 6.63614ZM30.6914 18.7088C31.282 19.0533 31.5633 19.7565 31.3734 20.4244C31.2609 20.8393 30.825 21.2963 30.4242 21.4158C30.2062 21.4791 28.6312 21.5002 23.8992 21.5002C18.4219 21.5002 17.6344 21.4861 17.4023 21.3877C16.8469 21.1557 16.4742 20.6143 16.4742 20.0236C16.4742 19.2854 16.868 18.765 17.5992 18.54C17.6977 18.5119 20.6086 18.4908 24.068 18.4979L30.3609 18.5119L30.6914 18.7088ZM11.9531 24.1158C11.925 26.9916 11.9039 27.1322 11.468 27.9971C10.7297 29.4666 9.34453 30.3736 7.68516 30.4791C5.57578 30.6127 3.56484 29.115 3.08672 27.0549C2.94609 26.4713 2.94609 25.5291 3.08672 24.9455C3.375 23.715 4.29609 22.5619 5.43516 21.9994C6.37734 21.5424 6.60234 21.5143 9.46406 21.5072L11.9883 21.5002L11.9531 24.1158ZM30.593 24.6572C31.5703 25.1565 31.7391 26.401 30.9375 27.1041C30.7969 27.2307 30.5578 27.3643 30.4172 27.4065C30.2273 27.4627 28.2375 27.4768 23.7797 27.4627L17.4164 27.4416L17.1562 27.2658C17.0086 27.1674 16.8047 26.9635 16.6992 26.8158C16.5305 26.5697 16.5094 26.4713 16.5094 25.9932C16.5094 25.501 16.5305 25.4236 16.7203 25.1494C16.8398 24.9877 17.0719 24.7768 17.2406 24.6854L17.55 24.5236H23.9414C30.0937 24.5236 30.3398 24.5307 30.593 24.6572Z" fill="#7750F1"/>
<path d="M19.477 9.52578C19.4488 9.54688 19.4277 10.2289 19.4277 11.0375V12.5H20.9395H22.4512V10.9883V9.47656H20.9887C20.1801 9.47656 19.498 9.49766 19.477 9.52578Z" fill="#7750F1"/>
</svg>
